<svg xmlns="http://www.w3.org/2000/svg" xmlns:xlink="http://www.w3.org/1999/xlink" width="500" zoomAndPan="magnify" viewBox="0 0 375 374.999991" height="500" preserveAspectRatio="xMidYMid meet" version="1.0"><defs><g/></defs><g fill="#01aa6d" fill-opacity="0.4"><g transform="translate(56.815736, 322.802833)"><g><path d="M 112.4375 -235.960938 C 112.4375 -241.066406 110.679688 -243.527344 106.105469 -243.527344 L 70.558594 -243.527344 C 68.625 -243.527344 65.632812 -242.121094 65.632812 -236.84375 L 65.632812 -61.585938 C 65.632812 -48.742188 59.121094 -38.535156 45.398438 -38.535156 C 37.304688 -38.535156 29.5625 -42.582031 24.457031 -47.859375 C 22.875 -49.621094 21.113281 -50.5 19.355469 -50.5 C 17.597656 -50.5 15.835938 -49.621094 14.429688 -47.859375 L -1.757812 -27.449219 C -4.398438 -24.105469 -1.757812 -18.828125 -0.175781 -16.890625 C 11.613281 -2.640625 30.089844 3.871094 47.859375 3.871094 C 82.878906 3.871094 112.4375 -20.234375 112.4375 -58.945312 Z M 112.4375 -235.960938 "/></g></g><g transform="translate(180.867415, 322.802833)"><g><path d="M 97.304688 -123.699219 C 97.304688 -111.734375 89.386719 -102.761719 77.246094 -102.761719 L 59.472656 -102.761719 L 59.472656 -200.769531 L 77.070312 -200.769531 C 89.210938 -200.769531 97.304688 -192.148438 97.304688 -179.480469 Z M 12.667969 -6.6875 C 12.667969 -2.464844 14.605469 0 18.652344 0 L 53.667969 0 C 57.714844 0 59.472656 -2.464844 59.472656 -6.6875 L 59.472656 -60.355469 L 80.765625 -60.355469 C 117.011719 -60.355469 144.285156 -88.683594 144.285156 -124.050781 L 144.285156 -180.359375 C 144.285156 -215.726562 117.011719 -243.527344 80.765625 -243.527344 L 18.652344 -243.527344 C 14.957031 -243.527344 12.667969 -240.890625 12.667969 -236.664062 Z M 12.667969 -6.6875 "/></g></g></g><g fill="#01aa6d" fill-opacity="1"><g transform="translate(40.889428, 306.87653)"><g><path d="M 112.4375 -235.960938 C 112.4375 -241.066406 110.679688 -243.527344 106.105469 -243.527344 L 70.558594 -243.527344 C 68.625 -243.527344 65.632812 -242.121094 65.632812 -236.84375 L 65.632812 -61.585938 C 65.632812 -48.742188 59.121094 -38.535156 45.398438 -38.535156 C 37.304688 -38.535156 29.5625 -42.582031 24.457031 -47.859375 C 22.875 -49.621094 21.113281 -50.5 19.355469 -50.5 C 17.597656 -50.5 15.835938 -49.621094 14.429688 -47.859375 L -1.757812 -27.449219 C -4.398438 -24.105469 -1.757812 -18.828125 -0.175781 -16.890625 C 11.613281 -2.640625 30.089844 3.871094 47.859375 3.871094 C 82.878906 3.871094 112.4375 -20.234375 112.4375 -58.945312 Z M 112.4375 -235.960938 "/></g></g><g transform="translate(164.941107, 306.87653)"><g><path d="M 97.304688 -123.699219 C 97.304688 -111.734375 89.386719 -102.761719 77.246094 -102.761719 L 59.472656 -102.761719 L 59.472656 -200.769531 L 77.070312 -200.769531 C 89.210938 -200.769531 97.304688 -192.148438 97.304688 -179.480469 Z M 12.667969 -6.6875 C 12.667969 -2.464844 14.605469 0 18.652344 0 L 53.667969 0 C 57.714844 0 59.472656 -2.464844 59.472656 -6.6875 L 59.472656 -60.355469 L 80.765625 -60.355469 C 117.011719 -60.355469 144.285156 -88.683594 144.285156 -124.050781 L 144.285156 -180.359375 C 144.285156 -215.726562 117.011719 -243.527344 80.765625 -243.527344 L 18.652344 -243.527344 C 14.957031 -243.527344 12.667969 -240.890625 12.667969 -236.664062 Z M 12.667969 -6.6875 "/></g></g></g></svg>